<svg width="85" height="14" viewBox="0 0 85 14" fill="none" xmlns="http://www.w3.org/2000/svg">
<g clip-path="url(#clip0_536_5740)">
<path d="M4.476 6.10376C3.988 6.10376 3.552 6.19976 3.168 6.39176C2.784 6.57576 2.508 6.84376 2.34 7.19576V10.9998H0.732V4.71176H2.208V6.05576C2.432 5.62376 2.716 5.28376 3.06 5.03576C3.404 4.78776 3.768 4.65176 4.152 4.62776C4.24 4.62776 4.308 4.62776 4.356 4.62776C4.404 4.62776 4.444 4.63176 4.476 4.63976V6.10376ZM8.20659 11.1198C7.70259 11.1198 7.24659 11.0358 6.83859 10.8678C6.43059 10.6918 6.08259 10.4558 5.79459 10.1598C5.50659 9.85576 5.28259 9.51176 5.12259 9.12776C4.97059 8.73576 4.89459 8.32376 4.89459 7.89176C4.89459 7.29176 5.02659 6.74376 5.29059 6.24776C5.56259 5.75176 5.94659 5.35576 6.44259 5.05976C6.94659 4.75576 7.53859 4.60376 8.21859 4.60376C8.90659 4.60376 9.49459 4.75576 9.98259 5.05976C10.4706 5.35576 10.8426 5.75176 11.0986 6.24776C11.3626 6.73576 11.4946 7.26376 11.4946 7.83176C11.4946 7.92776 11.4906 8.02776 11.4826 8.13176C11.4746 8.22776 11.4666 8.30776 11.4586 8.37176H6.59859C6.63059 8.69176 6.72259 8.97176 6.87459 9.21176C7.03459 9.45176 7.23459 9.63576 7.47459 9.76376C7.72259 9.88376 7.98659 9.94376 8.26659 9.94376C8.58659 9.94376 8.88659 9.86776 9.16659 9.71576C9.45459 9.55576 9.65059 9.34776 9.75459 9.09176L11.1346 9.47576C10.9826 9.79576 10.7626 10.0798 10.4746 10.3278C10.1946 10.5758 9.86259 10.7718 9.47859 10.9158C9.09459 11.0518 8.67059 11.1198 8.20659 11.1198ZM6.56259 7.35176H9.85059C9.81859 7.03176 9.72659 6.75576 9.57459 6.52376C9.43059 6.28376 9.23859 6.09976 8.99859 5.97176C8.75859 5.83576 8.49059 5.76776 8.19459 5.76776C7.90659 5.76776 7.64259 5.83576 7.40259 5.97176C7.17059 6.09976 6.97859 6.28376 6.82659 6.52376C6.68259 6.75576 6.59459 7.03176 6.56259 7.35176ZM12.0422 9.13976C12.0422 8.73176 12.1542 8.37576 12.3782 8.07176C12.6102 7.75976 12.9302 7.51976 13.3382 7.35176C13.7462 7.18376 14.2142 7.09976 14.7422 7.09976C15.0062 7.09976 15.2742 7.11976 15.5462 7.15976C15.8182 7.19976 16.0542 7.26376 16.2542 7.35176V7.01576C16.2542 6.61576 16.1342 6.30776 15.8942 6.09176C15.6622 5.87576 15.3142 5.76776 14.8502 5.76776C14.5062 5.76776 14.1782 5.82776 13.8662 5.94776C13.5542 6.06776 13.2262 6.24376 12.8822 6.47576L12.3662 5.41976C12.7822 5.14776 13.2062 4.94376 13.6382 4.80776C14.0782 4.67176 14.5382 4.60376 15.0182 4.60376C15.9142 4.60376 16.6102 4.82776 17.1062 5.27576C17.6102 5.72376 17.8622 6.36376 17.8622 7.19576V9.19976C17.8622 9.36776 17.8902 9.48776 17.9462 9.55976C18.0102 9.63176 18.1102 9.67576 18.2462 9.69176V10.9998C18.1022 11.0238 17.9702 11.0438 17.8502 11.0598C17.7382 11.0758 17.6422 11.0838 17.5622 11.0838C17.2422 11.0838 16.9982 11.0118 16.8302 10.8678C16.6702 10.7238 16.5702 10.5478 16.5302 10.3398L16.4942 10.0158C16.2222 10.3678 15.8822 10.6398 15.4742 10.8318C15.0662 11.0238 14.6502 11.1198 14.2262 11.1198C13.8102 11.1198 13.4342 11.0358 13.0982 10.8678C12.7702 10.6918 12.5102 10.4558 12.3182 10.1598C12.1342 9.85576 12.0422 9.51576 12.0422 9.13976ZM15.9542 9.46376C16.0422 9.36776 16.1142 9.27176 16.1702 9.17576C16.2262 9.07976 16.2542 8.99176 16.2542 8.91176V8.27576C16.0622 8.19576 15.8542 8.13576 15.6302 8.09576C15.4062 8.04776 15.1942 8.02376 14.9942 8.02376C14.5782 8.02376 14.2342 8.11576 13.9622 8.29976C13.6982 8.47576 13.5662 8.71176 13.5662 9.00776C13.5662 9.16776 13.6102 9.31976 13.6982 9.46376C13.7862 9.60776 13.9142 9.72376 14.0822 9.81176C14.2502 9.89976 14.4502 9.94376 14.6822 9.94376C14.9222 9.94376 15.1582 9.89976 15.3902 9.81176C15.6222 9.71576 15.8102 9.59976 15.9542 9.46376ZM18.9808 7.85576C18.9808 7.24776 19.1008 6.69976 19.3408 6.21176C19.5808 5.71576 19.9128 5.32376 20.3368 5.03576C20.7608 4.74776 21.2448 4.60376 21.7888 4.60376C22.2528 4.60376 22.6688 4.71976 23.0368 4.95176C23.4128 5.17576 23.7048 5.46376 23.9128 5.81576V2.23976H25.5208V9.19976C25.5208 9.36776 25.5488 9.48776 25.6048 9.55976C25.6608 9.63176 25.7568 9.67576 25.8928 9.69176V10.9998C25.6128 11.0558 25.3848 11.0838 25.2088 11.0838C24.9208 11.0838 24.6808 11.0118 24.4888 10.8678C24.3048 10.7238 24.2008 10.5358 24.1768 10.3038L24.1528 9.90776C23.9208 10.2998 23.6048 10.5998 23.2048 10.8078C22.8128 11.0158 22.4008 11.1198 21.9688 11.1198C21.5368 11.1198 21.1368 11.0358 20.7688 10.8678C20.4088 10.6998 20.0928 10.4678 19.8208 10.1718C19.5568 9.87576 19.3488 9.53176 19.1968 9.13976C19.0528 8.73976 18.9808 8.31176 18.9808 7.85576ZM23.9128 8.69576V7.19576C23.8328 6.96376 23.7048 6.75576 23.5288 6.57176C23.3528 6.38776 23.1568 6.24376 22.9408 6.13976C22.7248 6.02776 22.5088 5.97176 22.2928 5.97176C22.0448 5.97176 21.8208 6.02376 21.6208 6.12776C21.4208 6.23176 21.2448 6.37176 21.0928 6.54776C20.9488 6.72376 20.8368 6.92776 20.7568 7.15976C20.6848 7.39176 20.6488 7.63576 20.6488 7.89176C20.6488 8.14776 20.6888 8.39176 20.7688 8.62376C20.8568 8.84776 20.9808 9.04376 21.1408 9.21176C21.3008 9.37976 21.4848 9.51176 21.6928 9.60776C21.9088 9.70376 22.1408 9.75176 22.3888 9.75176C22.5408 9.75176 22.6928 9.72776 22.8448 9.67976C23.0048 9.62376 23.1528 9.55176 23.2888 9.46376C23.4328 9.36776 23.5568 9.25576 23.6608 9.12776C23.7728 8.99176 23.8568 8.84776 23.9128 8.69576ZM39.75 10.9998H38.142V7.47176C38.142 6.97576 38.054 6.61176 37.878 6.37976C37.71 6.13976 37.474 6.01976 37.17 6.01976C36.858 6.01976 36.558 6.14376 36.27 6.39176C35.99 6.63176 35.79 6.94776 35.67 7.33976V10.9998H34.062V7.47176C34.062 6.96776 33.974 6.59976 33.798 6.36776C33.63 6.13576 33.394 6.01976 33.09 6.01976C32.778 6.01976 32.478 6.13976 32.19 6.37976C31.91 6.61976 31.71 6.93576 31.59 7.32776V10.9998H29.982V4.71176H31.434V5.87576C31.674 5.46776 31.994 5.15576 32.394 4.93976C32.794 4.71576 33.254 4.60376 33.774 4.60376C34.294 4.60376 34.698 4.73176 34.986 4.98776C35.282 5.24376 35.47 5.55976 35.55 5.93576C35.806 5.50376 36.13 5.17576 36.522 4.95176C36.922 4.71976 37.37 4.60376 37.866 4.60376C38.258 4.60376 38.574 4.67576 38.814 4.81976C39.062 4.95576 39.254 5.14376 39.39 5.38376C39.526 5.61576 39.618 5.87976 39.666 6.17576C39.722 6.47176 39.75 6.77176 39.75 7.07576V10.9998ZM44.054 11.1198C43.542 11.1198 43.082 11.0358 42.674 10.8678C42.266 10.6918 41.918 10.4518 41.63 10.1478C41.35 9.84376 41.134 9.49576 40.982 9.10376C40.83 8.71176 40.754 8.29976 40.754 7.86776C40.754 7.42776 40.83 7.01176 40.982 6.61976C41.134 6.22776 41.35 5.87976 41.63 5.57576C41.918 5.27176 42.266 5.03576 42.674 4.86776C43.082 4.69176 43.542 4.60376 44.054 4.60376C44.566 4.60376 45.022 4.69176 45.422 4.86776C45.83 5.03576 46.178 5.27176 46.466 5.57576C46.754 5.87976 46.97 6.22776 47.114 6.61976C47.266 7.01176 47.342 7.42776 47.342 7.86776C47.342 8.29976 47.266 8.71176 47.114 9.10376C46.97 9.49576 46.754 9.84376 46.466 10.1478C46.186 10.4518 45.842 10.6918 45.434 10.8678C45.026 11.0358 44.566 11.1198 44.054 11.1198ZM42.41 7.86776C42.41 8.23576 42.482 8.56376 42.626 8.85176C42.77 9.13176 42.966 9.35176 43.214 9.51176C43.462 9.67176 43.742 9.75176 44.054 9.75176C44.358 9.75176 44.634 9.67176 44.882 9.51176C45.13 9.34376 45.326 9.11976 45.47 8.83976C45.622 8.55176 45.698 8.22376 45.698 7.85576C45.698 7.49576 45.622 7.17176 45.47 6.88376C45.326 6.59576 45.13 6.37176 44.882 6.21176C44.634 6.05176 44.358 5.97176 44.054 5.97176C43.742 5.97176 43.462 6.05576 43.214 6.22376C42.966 6.38376 42.77 6.60776 42.626 6.89576C42.482 7.17576 42.41 7.49976 42.41 7.86776ZM52.1713 6.10376C51.6833 6.10376 51.2473 6.19976 50.8633 6.39176C50.4793 6.57576 50.2033 6.84376 50.0353 7.19576V10.9998H48.4273V4.71176H49.9033V6.05576C50.1273 5.62376 50.4113 5.28376 50.7553 5.03576C51.0993 4.78776 51.4633 4.65176 51.8473 4.62776C51.9353 4.62776 52.0033 4.62776 52.0513 4.62776C52.0993 4.62776 52.1393 4.63176 52.1713 4.63976V6.10376ZM55.9019 11.1198C55.3979 11.1198 54.9419 11.0358 54.5339 10.8678C54.1259 10.6918 53.7779 10.4558 53.4899 10.1598C53.2019 9.85576 52.9779 9.51176 52.8179 9.12776C52.6659 8.73576 52.5899 8.32376 52.5899 7.89176C52.5899 7.29176 52.7219 6.74376 52.9859 6.24776C53.2579 5.75176 53.6419 5.35576 54.1379 5.05976C54.6419 4.75576 55.2339 4.60376 55.9139 4.60376C56.6019 4.60376 57.1899 4.75576 57.6779 5.05976C58.1659 5.35576 58.5379 5.75176 58.7939 6.24776C59.0579 6.73576 59.1899 7.26376 59.1899 7.83176C59.1899 7.92776 59.1859 8.02776 59.1779 8.13176C59.1699 8.22776 59.1619 8.30776 59.1539 8.37176H54.2939C54.3259 8.69176 54.4179 8.97176 54.5699 9.21176C54.7299 9.45176 54.9299 9.63576 55.1699 9.76376C55.4179 9.88376 55.6819 9.94376 55.9619 9.94376C56.2819 9.94376 56.5819 9.86776 56.8619 9.71576C57.1499 9.55576 57.3459 9.34776 57.4499 9.09176L58.8299 9.47576C58.6779 9.79576 58.4579 10.0798 58.1699 10.3278C57.8899 10.5758 57.5579 10.7718 57.1739 10.9158C56.7899 11.0518 56.3659 11.1198 55.9019 11.1198ZM54.2579 7.35176H57.5459C57.5139 7.03176 57.4219 6.75576 57.2699 6.52376C57.1259 6.28376 56.9339 6.09976 56.6939 5.97176C56.4539 5.83576 56.1859 5.76776 55.8899 5.76776C55.6019 5.76776 55.3379 5.83576 55.0979 5.97176C54.8659 6.09976 54.6739 6.28376 54.5219 6.52376C54.3779 6.75576 54.2899 7.03176 54.2579 7.35176Z" fill="#FAE084"/>
<path d="M79.3327 1.99984L78.3927 2.93984L82.1127 6.6665L68.666 6.6665L68.666 7.99984L82.1127 7.99984L78.386 11.7198L79.3327 12.6665L84.666 7.33317L79.3327 1.99984Z" fill="#FAE084"/>
</g>
<defs>
<clipPath id="clip0_536_5740">
<rect width="84.666" height="14" fill="white" transform="translate(0 -0.000244141)"/>
</clipPath>
</defs>
</svg>
